<svg xmlns="http://www.w3.org/2000/svg" xmlns:v="https://svgstorm.com"
viewBox = "0 0 1024 1024"
width="1024"
height="1024">
<g fill="None" fill-opacity="0.0" stroke="#000000" stroke-opacity="0.00" stroke-width="0.3"><path d="
M 0.00 1024.00 
L 1024.00 1024.00
L 1024.00 0.00
L 0.00 0.00
L 0.00 1024.00
M 487.00 132.00 
C 511.29 132.07 539.32 134.24 558.75 138.26 C 578.18 142.28 594.13 145.21 612.22 151.22 C 630.32 157.23 646.01 163.39 663.75 169.39 C 681.49 175.40 699.48 186.02 717.08 197.92 C 734.69 209.81 752.06 220.56 769.70 236.30 C 787.33 252.05 802.81 269.09 815.90 286.10 C 828.99 303.11 841.58 318.83 850.75 337.25 C 859.92 355.68 867.16 371.99 871.91 390.10 C 876.65 408.21 880.02 428.92 884.80 447.25 C 889.58 465.58 888.88 493.23 890.01 515.01 C 891.14 536.79 890.77 567.24 887.67 588.67 C 884.56 610.10 878.26 623.09 873.41 641.75 C 868.56 660.42 861.90 674.84 853.94 691.08 C 845.98 707.32 835.38 721.06 823.89 738.89 C 812.40 756.73 798.05 772.20 780.25 790.25 C 762.45 808.29 745.24 822.26 729.23 832.57 C 713.22 842.89 697.18 851.80 680.77 859.21 C 664.36 866.62 650.93 874.30 631.90 879.91 C 612.87 885.51 598.58 890.09 579.30 893.31 C 560.02 896.53 534.87 898.29 512.26 897.40 C 489.64 896.51 464.41 895.12 443.92 890.94 C 423.42 886.76 406.55 884.23 387.75 878.80 C 368.95 873.37 356.16 866.14 338.25 859.41 C 320.34 852.68 305.94 842.83 288.81 833.74 C 271.69 824.65 254.12 810.09 237.25 794.75 C 220.38 779.41 203.50 761.46 192.87 745.08 C 182.24 728.70 173.40 715.04 164.81 698.75 C 156.22 682.45 150.94 665.49 145.79 647.77 C 140.63 630.04 137.54 608.21 134.93 586.92 C 132.33 565.63 128.78 535.67 130.98 511.97 C 133.17 488.28 135.00 463.69 139.40 444.25 C 143.80 424.82 148.26 402.32 155.59 383.25 C 162.92 364.18 167.59 349.99 176.39 331.25 C 185.19 312.50 194.09 294.91 205.39 278.25 C 216.70 261.58 237.66 241.22 253.30 225.30 C 268.94 209.38 288.01 194.10 305.03 183.03 C 322.06 171.97 338.02 161.86 358.25 154.25 C 378.47 146.63 394.43 142.52 414.75 139.40 C 435.06 136.28 463.28 131.93 487.00 132.00 Z"/>
</g>
<g fill="None" fill-opacity="0.0" stroke="#000000" stroke-opacity="0.98" stroke-width="0.3"><path d="
M 487.00 132.00 
C 463.28 131.93 435.06 136.28 414.75 139.40 C 394.43 142.52 378.47 146.63 358.25 154.25 C 338.02 161.86 322.06 171.97 305.03 183.03 C 288.01 194.10 268.94 209.38 253.30 225.30 C 237.66 241.22 216.70 261.58 205.39 278.25 C 194.09 294.91 185.19 312.50 176.39 331.25 C 167.59 349.99 162.92 364.18 155.59 383.25 C 148.26 402.32 143.80 424.82 139.40 444.25 C 135.00 463.69 133.17 488.28 130.98 511.97 C 128.78 535.67 132.33 565.63 134.93 586.92 C 137.54 608.21 140.63 630.04 145.79 647.77 C 150.94 665.49 156.22 682.45 164.81 698.75 C 173.40 715.04 182.24 728.70 192.87 745.08 C 203.50 761.46 220.38 779.41 237.25 794.75 C 254.12 810.09 271.69 824.65 288.81 833.74 C 305.94 842.83 320.34 852.68 338.25 859.41 C 356.16 866.14 368.95 873.37 387.75 878.80 C 406.55 884.23 423.42 886.76 443.92 890.94 C 464.41 895.12 489.64 896.51 512.26 897.40 C 534.87 898.29 560.02 896.53 579.30 893.31 C 598.58 890.09 612.87 885.51 631.90 879.91 C 650.93 874.30 664.36 866.62 680.77 859.21 C 697.18 851.80 713.22 842.89 729.23 832.57 C 745.24 822.26 762.45 808.29 780.25 790.25 C 798.05 772.20 812.40 756.73 823.89 738.89 C 835.38 721.06 845.98 707.32 853.94 691.08 C 861.90 674.84 868.56 660.42 873.41 641.75 C 878.26 623.09 884.56 610.10 887.67 588.67 C 890.77 567.24 891.14 536.79 890.01 515.01 C 888.88 493.23 889.58 465.58 884.80 447.25 C 880.02 428.92 876.65 408.21 871.91 390.10 C 867.16 371.99 859.92 355.68 850.75 337.25 C 841.58 318.83 828.99 303.11 815.90 286.10 C 802.81 269.09 787.33 252.05 769.70 236.30 C 752.06 220.56 734.69 209.81 717.08 197.92 C 699.48 186.02 681.49 175.40 663.75 169.39 C 646.01 163.39 630.32 157.23 612.22 151.22 C 594.13 145.21 578.18 142.28 558.75 138.26 C 539.32 134.24 511.29 132.07 487.00 132.00
M 739.00 258.00 
C 706.46 292.81 676.82 331.45 644.90 364.90 C 612.99 398.36 577.65 437.87 542.00 467.00
C 540.76 452.35 543.30 438.38 542.07 423.93 C 540.84 409.47 543.36 400.56 542.93 385.92 C 542.50 371.29 542.80 350.19 542.99 335.99 C 543.18 321.79 542.61 305.19 542.35 292.30 C 542.09 279.42 545.83 263.34 535.08 256.92 C 524.33 250.50 506.07 257.42 491.00 256.00 C 475.93 254.58 454.96 256.09 437.78 255.78 C 420.60 255.46 405.52 255.36 391.00 257.00 C 376.48 258.64 358.24 256.16 345.92 259.07 C 333.60 261.97 324.02 266.37 312.92 271.92 C 301.82 277.48 291.40 285.95 282.92 296.92 C 274.43 307.89 268.95 317.18 264.22 329.22 C 259.50 341.27 256.67 350.91 254.40 364.75 C 252.12 378.59 252.08 392.71 253.40 406.75 C 254.71 420.79 257.75 432.16 262.19 444.25 C 266.64 456.33 274.38 465.32 282.71 476.30 C 291.04 487.29 307.80 496.27 315.00 504.00
C 307.60 507.05 301.68 509.41 294.90 513.91 C 288.12 518.40 281.54 520.71 275.08 527.13 C 268.62 533.55 258.71 540.44 252.92 547.92 C 247.13 555.40 241.33 562.42 238.22 570.22 C 235.12 578.03 230.30 585.60 228.29 593.30 C 226.28 601.01 225.77 609.66 224.20 617.25 C 222.63 624.84 223.19 638.44 223.22 647.22 C 223.25 656.00 226.40 667.82 227.39 675.75 C 228.39 683.68 232.25 690.37 234.57 696.77 C 236.89 703.17 239.90 708.08 244.75 714.25 C 249.60 720.43 253.50 728.04 260.75 734.25 C 268.00 740.45 276.75 746.02 284.23 750.21 C 291.71 754.40 296.06 757.80 303.25 760.19 C 310.45 762.58 315.13 766.47 322.75 768.59 C 330.38 770.71 337.02 773.12 345.23 775.77 C 353.44 778.42 360.68 778.13 368.25 780.20 C 375.82 782.26 384.75 782.50 394.70 783.35 C 404.65 784.20 416.09 783.21 426.08 783.07 C 436.07 782.92 442.40 783.89 451.92 781.87 C 461.43 779.85 472.72 783.84 481.25 782.20 C 489.77 780.56 501.30 780.55 508.75 781.39 C 516.21 782.23 528.78 785.49 534.92 778.91 C 541.05 772.34 540.16 757.68 541.00 748.00 C 541.84 738.32 539.08 727.82 540.02 717.98 C 540.96 708.14 539.96 694.79 540.34 685.32 C 540.71 675.86 540.64 670.28 540.07 659.92 C 539.49 649.55 541.38 640.68 540.60 631.25 C 539.83 621.81 542.34 614.32 541.93 604.92 C 541.51 595.53 541.92 585.95 542.64 577.30 C 543.35 568.65 542.67 556.90 542.93 547.92 C 543.19 538.94 539.26 521.24 548.77 527.23 C 558.28 533.22 563.30 537.41 570.75 543.59 C 578.21 549.77 583.04 550.46 590.22 556.78 C 597.41 563.10 602.68 566.57 610.10 571.90 C 617.52 577.23 622.19 581.78 629.92 587.13 C 637.65 592.48 644.16 597.94 650.75 603.25 C 657.35 608.55 663.20 610.96 669.75 617.25 C 676.31 623.53 683.40 624.70 690.25 630.80 C 697.10 636.90 703.87 641.70 711.03 646.97 C 718.19 652.25 724.77 658.99 732.30 664.70 C 739.83 670.42 745.90 673.94 752.75 679.39 C 759.60 684.85 767.57 692.56 774.25 697.19 C 780.93 701.83 787.95 709.95 795.00 715.00
C 774.44 741.99 747.33 771.18 720.23 790.23 C 693.13 809.28 673.86 819.34 643.25 831.39 C 612.63 843.45 581.17 853.38 547.97 855.97 C 514.77 858.56 472.04 855.49 440.32 849.66 C 408.60 843.83 382.54 835.69 355.75 825.81 C 328.95 815.93 304.32 800.03 278.23 782.43 C 252.14 764.83 224.93 732.03 211.89 708.11 C 198.86 684.18 188.69 661.18 180.87 633.08 C 173.05 604.99 170.15 570.49 168.89 537.11 C 167.63 503.73 172.03 468.03 179.06 438.92 C 186.10 409.81 196.23 385.87 206.59 359.25 C 216.96 332.64 232.74 303.03 254.90 278.90 C 277.06 254.78 304.39 232.41 328.89 216.89 C 353.40 201.38 376.67 188.54 405.30 181.29 C 433.94 174.03 464.81 171.91 496.75 169.41 C 528.70 166.91 562.36 176.36 589.30 184.71 C 616.24 193.06 640.79 200.13 665.25 211.19 C 689.71 222.26 712.80 244.65 739.00 258.00
M 812.00 681.00 
C 774.53 647.86 730.56 616.91 690.26 586.74 C 649.96 556.58 609.31 526.58 567.00 497.00
C 599.44 459.45 638.13 426.25 671.25 390.25 C 704.36 354.25 731.61 320.13 760.00 285.00
C 770.20 290.12 778.71 303.20 785.78 312.22 C 792.85 321.25 799.36 328.74 804.13 337.92 C 808.90 347.10 814.21 354.74 818.71 363.30 C 823.21 371.87 827.00 383.45 830.26 392.75 C 833.53 402.06 835.53 413.32 838.60 421.75 C 841.68 430.18 843.24 441.42 845.80 451.25 C 848.36 461.08 849.12 470.77 850.80 481.25 C 852.48 491.73 851.85 506.86 853.07 519.07 C 854.29 531.28 852.21 546.07 850.23 558.23 C 848.25 570.39 849.88 578.18 847.02 590.03 C 844.16 601.87 841.83 613.03 838.29 623.30 C 834.75 633.57 832.12 646.71 827.23 656.23 C 822.34 665.74 820.93 673.73 812.00 681.00
M 505.00 293.00 
C 503.74 357.77 505.22 418.72 504.00 482.00
C 473.48 482.29 436.34 484.21 403.98 483.98 C 371.61 483.74 349.42 480.21 327.25 464.74 C 305.08 449.27 289.33 421.43 291.40 392.25 C 293.46 363.07 295.39 342.50 314.71 319.70 C 334.04 296.89 367.04 293.69 398.08 293.07 C 429.12 292.44 469.39 294.99 505.00 293.00
M 494.00 518.00 
C 487.50 522.01 501.14 518.37 504.00 520.00
C 505.08 531.19 502.18 540.07 503.02 551.02 C 503.87 561.98 503.51 571.56 503.01 583.01 C 502.50 594.46 503.76 602.26 502.93 613.07 C 502.10 623.89 504.24 636.91 503.33 646.67 C 502.43 656.43 503.63 667.13 503.35 676.70 C 503.07 686.26 505.06 695.24 502.98 705.02 C 500.89 714.80 503.65 726.95 503.93 736.07 C 504.20 745.20 488.11 741.20 480.92 742.92 C 473.74 744.65 459.74 741.56 452.90 744.91 C 446.06 748.25 431.52 744.12 423.26 745.40 C 414.99 746.68 404.85 744.49 396.26 744.40 C 387.66 744.31 376.11 742.71 368.44 742.22 C 360.77 741.73 353.46 738.63 345.70 736.29 C 337.93 733.94 331.22 733.76 324.75 730.81 C 318.29 727.85 313.72 725.44 307.90 722.09 C 302.08 718.75 293.74 714.52 287.75 707.25 C 281.76 699.98 279.12 696.12 275.29 689.70 C 271.45 683.28 269.61 677.72 267.24 669.75 C 264.88 661.79 263.51 652.57 263.07 643.92 C 262.63 635.26 264.31 625.45 265.60 617.25 C 266.90 609.05 267.64 603.73 270.19 596.75 C 272.74 589.76 277.39 583.65 281.59 577.25 C 285.78 570.85 292.45 564.26 298.13 559.08 C 303.81 553.90 311.36 547.83 316.92 543.91 C 322.48 539.99 327.78 537.51 333.92 534.87 C 340.06 532.23 347.10 529.54 353.75 527.41 C 360.40 525.28 368.34 523.90 376.68 523.66 C 385.02 523.43 392.49 518.56 403.00 520.00 C 413.51 521.44 421.82 521.61 430.75 520.40 C 439.68 519.18 449.99 520.91 460.00 521.00 C 470.01 521.08 482.84 517.97 494.00 518.00 Z"/>
</g>
<g fill="None" fill-opacity="0.0" stroke="#000000" stroke-opacity="0.01" stroke-width="0.3"><path d="
M 739.00 258.00 
C 712.80 244.65 689.71 222.26 665.25 211.19 C 640.79 200.13 616.24 193.06 589.30 184.71 C 562.36 176.36 528.70 166.91 496.75 169.41 C 464.81 171.91 433.94 174.03 405.30 181.29 C 376.67 188.54 353.40 201.38 328.89 216.89 C 304.39 232.41 277.06 254.78 254.90 278.90 C 232.74 303.03 216.96 332.64 206.59 359.25 C 196.23 385.87 186.10 409.81 179.06 438.92 C 172.03 468.03 167.63 503.73 168.89 537.11 C 170.15 570.49 173.05 604.99 180.87 633.08 C 188.69 661.18 198.86 684.18 211.89 708.11 C 224.93 732.03 252.14 764.83 278.23 782.43 C 304.32 800.03 328.95 815.93 355.75 825.81 C 382.54 835.69 408.60 843.83 440.32 849.66 C 472.04 855.49 514.77 858.56 547.97 855.97 C 581.17 853.38 612.63 843.45 643.25 831.39 C 673.86 819.34 693.13 809.28 720.23 790.23 C 747.33 771.18 774.44 741.99 795.00 715.00
C 787.95 709.95 780.93 701.83 774.25 697.19 C 767.57 692.56 759.60 684.85 752.75 679.39 C 745.90 673.94 739.83 670.42 732.30 664.70 C 724.77 658.99 718.19 652.25 711.03 646.97 C 703.87 641.70 697.10 636.90 690.25 630.80 C 683.40 624.70 676.31 623.53 669.75 617.25 C 663.20 610.96 657.35 608.55 650.75 603.25 C 644.16 597.94 637.65 592.48 629.92 587.13 C 622.19 581.78 617.52 577.23 610.10 571.90 C 602.68 566.57 597.41 563.10 590.22 556.78 C 583.04 550.46 578.21 549.77 570.75 543.59 C 563.30 537.41 558.28 533.22 548.77 527.23 C 539.26 521.24 543.19 538.94 542.93 547.92 C 542.67 556.90 543.35 568.65 542.64 577.30 C 541.92 585.95 541.51 595.53 541.93 604.92 C 542.34 614.32 539.83 621.81 540.60 631.25 C 541.38 640.68 539.49 649.55 540.07 659.92 C 540.64 670.28 540.71 675.86 540.34 685.32 C 539.96 694.79 540.96 708.14 540.02 717.98 C 539.08 727.82 541.84 738.32 541.00 748.00 C 540.16 757.68 541.05 772.34 534.92 778.91 C 528.78 785.49 516.21 782.23 508.75 781.39 C 501.30 780.55 489.77 780.56 481.25 782.20 C 472.72 783.84 461.43 779.85 451.92 781.87 C 442.40 783.89 436.07 782.92 426.08 783.07 C 416.09 783.21 404.65 784.20 394.70 783.35 C 384.75 782.50 375.82 782.26 368.25 780.20 C 360.68 778.13 353.44 778.42 345.23 775.77 C 337.02 773.12 330.38 770.71 322.75 768.59 C 315.13 766.47 310.45 762.58 303.25 760.19 C 296.06 757.80 291.71 754.40 284.23 750.21 C 276.75 746.02 268.00 740.45 260.75 734.25 C 253.50 728.04 249.60 720.43 244.75 714.25 C 239.90 708.08 236.89 703.17 234.57 696.77 C 232.25 690.37 228.39 683.68 227.39 675.75 C 226.40 667.82 223.25 656.00 223.22 647.22 C 223.19 638.44 222.63 624.84 224.20 617.25 C 225.77 609.66 226.28 601.01 228.29 593.30 C 230.30 585.60 235.12 578.03 238.22 570.22 C 241.33 562.42 247.13 555.40 252.92 547.92 C 258.71 540.44 268.62 533.55 275.08 527.13 C 281.54 520.71 288.12 518.40 294.90 513.91 C 301.68 509.41 307.60 507.05 315.00 504.00
C 307.80 496.27 291.04 487.29 282.71 476.30 C 274.38 465.32 266.64 456.33 262.19 444.25 C 257.75 432.16 254.71 420.79 253.40 406.75 C 252.08 392.71 252.12 378.59 254.40 364.75 C 256.67 350.91 259.50 341.27 264.22 329.22 C 268.95 317.18 274.43 307.89 282.92 296.92 C 291.40 285.95 301.82 277.48 312.92 271.92 C 324.02 266.37 333.60 261.97 345.92 259.07 C 358.24 256.16 376.48 258.64 391.00 257.00 C 405.52 255.36 420.60 255.46 437.78 255.78 C 454.96 256.09 475.93 254.58 491.00 256.00 C 506.07 257.42 524.33 250.50 535.08 256.92 C 545.83 263.34 542.09 279.42 542.35 292.30 C 542.61 305.19 543.18 321.79 542.99 335.99 C 542.80 350.19 542.50 371.29 542.93 385.92 C 543.36 400.56 540.84 409.47 542.07 423.93 C 543.30 438.38 540.76 452.35 542.00 467.00
C 577.65 437.87 612.99 398.36 644.90 364.90 C 676.82 331.45 706.46 292.81 739.00 258.00 Z"/>
</g>
<g fill="None" fill-opacity="0.0" stroke="#000000" stroke-opacity="0.01" stroke-width="0.3"><path d="
M 812.00 681.00 
C 820.93 673.73 822.34 665.74 827.23 656.23 C 832.12 646.71 834.75 633.57 838.29 623.30 C 841.83 613.03 844.16 601.87 847.02 590.03 C 849.88 578.18 848.25 570.39 850.23 558.23 C 852.21 546.07 854.29 531.28 853.07 519.07 C 851.85 506.86 852.48 491.73 850.80 481.25 C 849.12 470.77 848.36 461.08 845.80 451.25 C 843.24 441.42 841.68 430.18 838.60 421.75 C 835.53 413.32 833.53 402.06 830.26 392.75 C 827.00 383.45 823.21 371.87 818.71 363.30 C 814.21 354.74 808.90 347.10 804.13 337.92 C 799.36 328.74 792.85 321.25 785.78 312.22 C 778.71 303.20 770.20 290.12 760.00 285.00
C 731.61 320.13 704.36 354.25 671.25 390.25 C 638.13 426.25 599.44 459.45 567.00 497.00
C 609.31 526.58 649.96 556.58 690.26 586.74 C 730.56 616.91 774.53 647.86 812.00 681.00
M 713.00 396.00 
C 722.65 407.82 717.87 425.48 718.01 441.01 C 718.14 456.54 720.56 473.77 722.57 487.77 C 724.58 501.76 740.24 513.53 753.77 507.42 C 767.30 501.31 773.99 486.34 774.78 471.78 C 775.56 457.21 781.87 436.94 778.40 419.26 C 774.94 401.57 791.69 389.10 804.00 402.00
C 806.42 422.74 804.37 451.44 801.67 471.67 C 798.98 491.91 790.50 511.12 773.90 523.90 C 757.30 536.68 732.35 538.42 715.70 525.30 C 699.06 512.18 691.46 491.40 691.40 470.25 C 691.34 449.11 686.82 418.97 692.00 398.00
C 699.46 394.98 706.24 395.16 713.00 396.00 Z"/>
</g>
<g fill="None" fill-opacity="0.0" stroke="#000000" stroke-opacity="0.00" stroke-width="0.3"><path d="
M 505.00 293.00 
C 469.39 294.99 429.12 292.44 398.08 293.07 C 367.04 293.69 334.04 296.89 314.71 319.70 C 295.39 342.50 293.46 363.07 291.40 392.25 C 289.33 421.43 305.08 449.27 327.25 464.74 C 349.42 480.21 371.61 483.74 403.98 483.98 C 436.34 484.21 473.48 482.29 504.00 482.00
C 505.22 418.72 503.74 357.77 505.00 293.00 Z"/>
</g>
<g fill="None" fill-opacity="0.0" stroke="#000000" stroke-opacity="0.98" stroke-width="0.3"><path d="
M 713.00 396.00 
C 706.24 395.16 699.46 394.98 692.00 398.00
C 686.82 418.97 691.34 449.11 691.40 470.25 C 691.46 491.40 699.06 512.18 715.70 525.30 C 732.35 538.42 757.30 536.68 773.90 523.90 C 790.50 511.12 798.98 491.91 801.67 471.67 C 804.37 451.44 806.42 422.74 804.00 402.00
C 791.69 389.10 774.94 401.57 778.40 419.26 C 781.87 436.94 775.56 457.21 774.78 471.78 C 773.99 486.34 767.30 501.31 753.77 507.42 C 740.24 513.53 724.58 501.76 722.57 487.77 C 720.56 473.77 718.14 456.54 718.01 441.01 C 717.87 425.48 722.65 407.82 713.00 396.00 Z"/>
</g>
<g fill="None" fill-opacity="0.0" stroke="#000000" stroke-opacity="0.00" stroke-width="0.3"><path d="
M 494.00 518.00 
C 482.84 517.97 470.01 521.08 460.00 521.00 C 449.99 520.91 439.68 519.18 430.75 520.40 C 421.82 521.61 413.51 521.44 403.00 520.00 C 392.49 518.56 385.02 523.43 376.68 523.66 C 368.34 523.90 360.40 525.28 353.75 527.41 C 347.10 529.54 340.06 532.23 333.92 534.87 C 327.78 537.51 322.48 539.99 316.92 543.91 C 311.36 547.83 303.81 553.90 298.13 559.08 C 292.45 564.26 285.78 570.85 281.59 577.25 C 277.39 583.65 272.74 589.76 270.19 596.75 C 267.64 603.73 266.90 609.05 265.60 617.25 C 264.31 625.45 262.63 635.26 263.07 643.92 C 263.51 652.57 264.88 661.79 267.24 669.75 C 269.61 677.72 271.45 683.28 275.29 689.70 C 279.12 696.12 281.76 699.98 287.75 707.25 C 293.74 714.52 302.08 718.75 307.90 722.09 C 313.72 725.44 318.29 727.85 324.75 730.81 C 331.22 733.76 337.93 733.94 345.70 736.29 C 353.46 738.63 360.77 741.73 368.44 742.22 C 376.11 742.71 387.66 744.31 396.26 744.40 C 404.85 744.49 414.99 746.68 423.26 745.40 C 431.52 744.12 446.06 748.25 452.90 744.91 C 459.74 741.56 473.74 744.65 480.92 742.92 C 488.11 741.20 504.20 745.20 503.93 736.07 C 503.65 726.95 500.89 714.80 502.98 705.02 C 505.06 695.24 503.07 686.26 503.35 676.70 C 503.63 667.13 502.43 656.43 503.33 646.67 C 504.24 636.91 502.10 623.89 502.93 613.07 C 503.76 602.26 502.50 594.46 503.01 583.01 C 503.51 571.56 503.87 561.98 503.02 551.02 C 502.18 540.07 505.08 531.19 504.00 520.00
C 501.14 518.37 487.50 522.01 494.00 518.00 Z"/>
</g>
<g fill="#000000" fill-opacity="0.00" stroke="None">
<path d="
M 0.00 1024.00 
L 1024.00 1024.00
L 1024.00 0.00
L 0.00 0.00
L 0.00 1024.00
M 487.00 132.00 
C 511.29 132.07 539.32 134.24 558.75 138.26 C 578.18 142.28 594.13 145.21 612.22 151.22 C 630.32 157.23 646.01 163.39 663.75 169.39 C 681.49 175.40 699.48 186.02 717.08 197.92 C 734.69 209.81 752.06 220.56 769.70 236.30 C 787.33 252.05 802.81 269.09 815.90 286.10 C 828.99 303.11 841.58 318.83 850.75 337.25 C 859.92 355.68 867.16 371.99 871.91 390.10 C 876.65 408.21 880.02 428.92 884.80 447.25 C 889.58 465.58 888.88 493.23 890.01 515.01 C 891.14 536.79 890.77 567.24 887.67 588.67 C 884.56 610.10 878.26 623.09 873.41 641.75 C 868.56 660.42 861.90 674.84 853.94 691.08 C 845.98 707.32 835.38 721.06 823.89 738.89 C 812.40 756.73 798.05 772.20 780.25 790.25 C 762.45 808.29 745.24 822.26 729.23 832.57 C 713.22 842.89 697.18 851.80 680.77 859.21 C 664.36 866.62 650.93 874.30 631.90 879.91 C 612.87 885.51 598.58 890.09 579.30 893.31 C 560.02 896.53 534.87 898.29 512.26 897.40 C 489.64 896.51 464.41 895.12 443.92 890.94 C 423.42 886.76 406.55 884.23 387.75 878.80 C 368.95 873.37 356.16 866.14 338.25 859.41 C 320.34 852.68 305.94 842.83 288.81 833.74 C 271.69 824.65 254.12 810.09 237.25 794.75 C 220.38 779.41 203.50 761.46 192.87 745.08 C 182.24 728.70 173.40 715.04 164.81 698.75 C 156.22 682.45 150.94 665.49 145.79 647.77 C 140.63 630.04 137.54 608.21 134.93 586.92 C 132.33 565.63 128.78 535.67 130.98 511.97 C 133.17 488.28 135.00 463.69 139.40 444.25 C 143.80 424.82 148.26 402.32 155.59 383.25 C 162.92 364.18 167.59 349.99 176.39 331.25 C 185.19 312.50 194.09 294.91 205.39 278.25 C 216.70 261.58 237.66 241.22 253.30 225.30 C 268.94 209.38 288.01 194.10 305.03 183.03 C 322.06 171.97 338.02 161.86 358.25 154.25 C 378.47 146.63 394.43 142.52 414.75 139.40 C 435.06 136.28 463.28 131.93 487.00 132.00 Z"/>
</g>
<g fill="#000000" fill-opacity="0.98" stroke="None">
<path d="
M 487.00 132.00 
C 463.28 131.93 435.06 136.28 414.75 139.40 C 394.43 142.52 378.47 146.63 358.25 154.25 C 338.02 161.86 322.06 171.97 305.03 183.03 C 288.01 194.10 268.94 209.38 253.30 225.30 C 237.66 241.22 216.70 261.58 205.39 278.25 C 194.09 294.91 185.19 312.50 176.39 331.25 C 167.59 349.99 162.92 364.18 155.59 383.25 C 148.26 402.32 143.80 424.82 139.40 444.25 C 135.00 463.69 133.17 488.28 130.98 511.97 C 128.78 535.67 132.33 565.63 134.93 586.92 C 137.54 608.21 140.63 630.04 145.79 647.77 C 150.94 665.49 156.22 682.45 164.81 698.75 C 173.40 715.04 182.24 728.70 192.87 745.08 C 203.50 761.46 220.38 779.41 237.25 794.75 C 254.12 810.09 271.69 824.65 288.81 833.74 C 305.94 842.83 320.34 852.68 338.25 859.41 C 356.16 866.14 368.95 873.37 387.75 878.80 C 406.55 884.23 423.42 886.76 443.92 890.94 C 464.41 895.12 489.64 896.51 512.26 897.40 C 534.87 898.29 560.02 896.53 579.30 893.31 C 598.58 890.09 612.87 885.51 631.90 879.91 C 650.93 874.30 664.36 866.62 680.77 859.21 C 697.18 851.80 713.22 842.89 729.23 832.57 C 745.24 822.26 762.45 808.29 780.25 790.25 C 798.05 772.20 812.40 756.73 823.89 738.89 C 835.38 721.06 845.98 707.32 853.94 691.08 C 861.90 674.84 868.56 660.42 873.41 641.75 C 878.26 623.09 884.56 610.10 887.67 588.67 C 890.77 567.24 891.14 536.79 890.01 515.01 C 888.88 493.23 889.58 465.58 884.80 447.25 C 880.02 428.92 876.65 408.21 871.91 390.10 C 867.16 371.99 859.92 355.68 850.75 337.25 C 841.58 318.83 828.99 303.11 815.90 286.10 C 802.81 269.09 787.33 252.05 769.70 236.30 C 752.06 220.56 734.69 209.81 717.08 197.92 C 699.48 186.02 681.49 175.40 663.75 169.39 C 646.01 163.39 630.32 157.23 612.22 151.22 C 594.13 145.21 578.18 142.28 558.75 138.26 C 539.32 134.24 511.29 132.07 487.00 132.00
M 739.00 258.00 
C 706.46 292.81 676.82 331.45 644.90 364.90 C 612.99 398.36 577.65 437.87 542.00 467.00
C 540.76 452.35 543.30 438.38 542.07 423.93 C 540.84 409.47 543.36 400.56 542.93 385.92 C 542.50 371.29 542.80 350.19 542.99 335.99 C 543.18 321.79 542.61 305.19 542.35 292.30 C 542.09 279.42 545.83 263.34 535.08 256.92 C 524.33 250.50 506.07 257.42 491.00 256.00 C 475.93 254.58 454.96 256.09 437.78 255.78 C 420.60 255.46 405.52 255.36 391.00 257.00 C 376.48 258.64 358.24 256.16 345.92 259.07 C 333.60 261.97 324.02 266.37 312.92 271.92 C 301.82 277.48 291.40 285.95 282.92 296.92 C 274.43 307.89 268.95 317.18 264.22 329.22 C 259.50 341.27 256.67 350.91 254.40 364.75 C 252.12 378.59 252.08 392.71 253.40 406.75 C 254.71 420.79 257.75 432.16 262.19 444.25 C 266.64 456.33 274.38 465.32 282.71 476.30 C 291.04 487.29 307.80 496.27 315.00 504.00
C 307.60 507.05 301.68 509.41 294.90 513.91 C 288.12 518.40 281.54 520.71 275.08 527.13 C 268.62 533.55 258.71 540.44 252.92 547.92 C 247.13 555.40 241.33 562.42 238.22 570.22 C 235.12 578.03 230.30 585.60 228.29 593.30 C 226.28 601.01 225.77 609.66 224.20 617.25 C 222.63 624.84 223.19 638.44 223.22 647.22 C 223.25 656.00 226.40 667.82 227.39 675.75 C 228.39 683.68 232.25 690.37 234.57 696.77 C 236.89 703.17 239.90 708.08 244.75 714.25 C 249.60 720.43 253.50 728.04 260.75 734.25 C 268.00 740.45 276.75 746.02 284.23 750.21 C 291.71 754.40 296.06 757.80 303.25 760.19 C 310.45 762.58 315.13 766.47 322.75 768.59 C 330.38 770.71 337.02 773.12 345.23 775.77 C 353.44 778.42 360.68 778.13 368.25 780.20 C 375.82 782.26 384.75 782.50 394.70 783.35 C 404.65 784.20 416.09 783.21 426.08 783.07 C 436.07 782.92 442.40 783.89 451.92 781.87 C 461.43 779.85 472.72 783.84 481.25 782.20 C 489.77 780.56 501.30 780.55 508.75 781.39 C 516.21 782.23 528.78 785.49 534.92 778.91 C 541.05 772.34 540.16 757.68 541.00 748.00 C 541.84 738.32 539.08 727.82 540.02 717.98 C 540.96 708.14 539.96 694.79 540.34 685.32 C 540.71 675.86 540.64 670.28 540.07 659.92 C 539.49 649.55 541.38 640.68 540.60 631.25 C 539.83 621.81 542.34 614.32 541.93 604.92 C 541.51 595.53 541.92 585.95 542.64 577.30 C 543.35 568.65 542.67 556.90 542.93 547.92 C 543.19 538.94 539.26 521.24 548.77 527.23 C 558.28 533.22 563.30 537.41 570.75 543.59 C 578.21 549.77 583.04 550.46 590.22 556.78 C 597.41 563.10 602.68 566.57 610.10 571.90 C 617.52 577.23 622.19 581.78 629.92 587.13 C 637.65 592.48 644.16 597.94 650.75 603.25 C 657.35 608.55 663.20 610.96 669.75 617.25 C 676.31 623.53 683.40 624.70 690.25 630.80 C 697.10 636.90 703.87 641.70 711.03 646.97 C 718.19 652.25 724.77 658.99 732.30 664.70 C 739.83 670.42 745.90 673.94 752.75 679.39 C 759.60 684.85 767.57 692.56 774.25 697.19 C 780.93 701.83 787.95 709.95 795.00 715.00
C 774.44 741.99 747.33 771.18 720.23 790.23 C 693.13 809.28 673.86 819.34 643.25 831.39 C 612.63 843.45 581.17 853.38 547.97 855.97 C 514.77 858.56 472.04 855.49 440.32 849.66 C 408.60 843.83 382.54 835.69 355.75 825.81 C 328.95 815.93 304.32 800.03 278.23 782.43 C 252.14 764.83 224.93 732.03 211.89 708.11 C 198.86 684.18 188.69 661.18 180.87 633.08 C 173.05 604.99 170.15 570.49 168.89 537.11 C 167.63 503.73 172.03 468.03 179.06 438.92 C 186.10 409.81 196.23 385.87 206.59 359.25 C 216.96 332.64 232.74 303.03 254.90 278.90 C 277.06 254.78 304.39 232.41 328.89 216.89 C 353.40 201.38 376.67 188.54 405.30 181.29 C 433.94 174.03 464.81 171.91 496.75 169.41 C 528.70 166.91 562.36 176.36 589.30 184.71 C 616.24 193.06 640.79 200.13 665.25 211.19 C 689.71 222.26 712.80 244.65 739.00 258.00
M 812.00 681.00 
C 774.53 647.86 730.56 616.91 690.26 586.74 C 649.96 556.58 609.31 526.58 567.00 497.00
C 599.44 459.45 638.13 426.25 671.25 390.25 C 704.36 354.25 731.61 320.13 760.00 285.00
C 770.20 290.12 778.71 303.20 785.78 312.22 C 792.85 321.25 799.36 328.74 804.13 337.92 C 808.90 347.10 814.21 354.74 818.71 363.30 C 823.21 371.87 827.00 383.45 830.26 392.75 C 833.53 402.06 835.53 413.32 838.60 421.75 C 841.68 430.18 843.24 441.42 845.80 451.25 C 848.36 461.08 849.12 470.77 850.80 481.25 C 852.48 491.73 851.85 506.86 853.07 519.07 C 854.29 531.28 852.21 546.07 850.23 558.23 C 848.25 570.39 849.88 578.18 847.02 590.03 C 844.16 601.87 841.83 613.03 838.29 623.30 C 834.75 633.57 832.12 646.71 827.23 656.23 C 822.34 665.74 820.93 673.73 812.00 681.00
M 505.00 293.00 
C 503.74 357.77 505.22 418.72 504.00 482.00
C 473.48 482.29 436.34 484.21 403.98 483.98 C 371.61 483.74 349.42 480.21 327.25 464.74 C 305.08 449.27 289.33 421.43 291.40 392.25 C 293.46 363.07 295.39 342.50 314.71 319.70 C 334.04 296.89 367.04 293.69 398.08 293.07 C 429.12 292.44 469.39 294.99 505.00 293.00
M 494.00 518.00 
C 487.50 522.01 501.14 518.37 504.00 520.00
C 505.08 531.19 502.18 540.07 503.02 551.02 C 503.87 561.98 503.51 571.56 503.01 583.01 C 502.50 594.46 503.76 602.26 502.93 613.07 C 502.10 623.89 504.24 636.91 503.33 646.67 C 502.43 656.43 503.63 667.13 503.35 676.70 C 503.07 686.26 505.06 695.24 502.98 705.02 C 500.89 714.80 503.65 726.95 503.93 736.07 C 504.20 745.20 488.11 741.20 480.92 742.92 C 473.74 744.65 459.74 741.56 452.90 744.91 C 446.06 748.25 431.52 744.12 423.26 745.40 C 414.99 746.68 404.85 744.49 396.26 744.40 C 387.66 744.31 376.11 742.71 368.44 742.22 C 360.77 741.73 353.46 738.63 345.70 736.29 C 337.93 733.94 331.22 733.76 324.75 730.81 C 318.29 727.85 313.72 725.44 307.90 722.09 C 302.08 718.75 293.74 714.52 287.75 707.25 C 281.76 699.98 279.12 696.12 275.29 689.70 C 271.45 683.28 269.61 677.72 267.24 669.75 C 264.88 661.79 263.51 652.57 263.07 643.92 C 262.63 635.26 264.31 625.45 265.60 617.25 C 266.90 609.05 267.64 603.73 270.19 596.75 C 272.74 589.76 277.39 583.65 281.59 577.25 C 285.78 570.85 292.45 564.26 298.13 559.08 C 303.81 553.90 311.36 547.83 316.92 543.91 C 322.48 539.99 327.78 537.51 333.92 534.87 C 340.06 532.23 347.10 529.54 353.75 527.41 C 360.40 525.28 368.34 523.90 376.68 523.66 C 385.02 523.43 392.49 518.56 403.00 520.00 C 413.51 521.44 421.82 521.61 430.75 520.40 C 439.68 519.18 449.99 520.91 460.00 521.00 C 470.01 521.08 482.84 517.97 494.00 518.00 Z"/>
</g>
<g fill="#000000" fill-opacity="0.01" stroke="None">
<path d="
M 739.00 258.00 
C 712.80 244.65 689.71 222.26 665.25 211.19 C 640.79 200.13 616.24 193.06 589.30 184.71 C 562.36 176.36 528.70 166.91 496.75 169.41 C 464.81 171.91 433.94 174.03 405.30 181.29 C 376.67 188.54 353.40 201.38 328.89 216.89 C 304.39 232.41 277.06 254.78 254.90 278.90 C 232.74 303.03 216.96 332.64 206.59 359.25 C 196.23 385.87 186.10 409.81 179.06 438.92 C 172.03 468.03 167.63 503.73 168.89 537.11 C 170.15 570.49 173.05 604.99 180.87 633.08 C 188.69 661.18 198.86 684.18 211.89 708.11 C 224.93 732.03 252.14 764.83 278.23 782.43 C 304.32 800.03 328.95 815.93 355.75 825.81 C 382.54 835.69 408.60 843.83 440.32 849.66 C 472.04 855.49 514.77 858.56 547.97 855.97 C 581.17 853.38 612.63 843.45 643.25 831.39 C 673.86 819.34 693.13 809.28 720.23 790.23 C 747.33 771.18 774.44 741.99 795.00 715.00
C 787.95 709.95 780.93 701.83 774.25 697.19 C 767.57 692.56 759.60 684.85 752.75 679.39 C 745.90 673.94 739.83 670.42 732.30 664.70 C 724.77 658.99 718.19 652.25 711.03 646.97 C 703.87 641.70 697.10 636.90 690.25 630.80 C 683.40 624.70 676.31 623.53 669.75 617.25 C 663.20 610.96 657.35 608.55 650.75 603.25 C 644.16 597.94 637.65 592.48 629.92 587.13 C 622.19 581.78 617.52 577.23 610.10 571.90 C 602.68 566.57 597.41 563.10 590.22 556.78 C 583.04 550.46 578.21 549.77 570.75 543.59 C 563.30 537.41 558.28 533.22 548.77 527.23 C 539.26 521.24 543.19 538.94 542.93 547.92 C 542.67 556.90 543.35 568.65 542.64 577.30 C 541.92 585.95 541.51 595.53 541.93 604.92 C 542.34 614.32 539.83 621.81 540.60 631.25 C 541.38 640.68 539.49 649.55 540.07 659.92 C 540.64 670.28 540.71 675.86 540.34 685.32 C 539.96 694.79 540.96 708.14 540.02 717.98 C 539.08 727.82 541.84 738.32 541.00 748.00 C 540.16 757.68 541.05 772.34 534.92 778.91 C 528.78 785.49 516.21 782.23 508.75 781.39 C 501.30 780.55 489.77 780.56 481.25 782.20 C 472.72 783.84 461.43 779.85 451.92 781.87 C 442.40 783.89 436.07 782.92 426.08 783.07 C 416.09 783.21 404.65 784.20 394.70 783.35 C 384.75 782.50 375.82 782.26 368.25 780.20 C 360.68 778.13 353.44 778.42 345.23 775.77 C 337.02 773.12 330.38 770.71 322.75 768.59 C 315.13 766.47 310.45 762.58 303.25 760.19 C 296.06 757.80 291.71 754.40 284.23 750.21 C 276.75 746.02 268.00 740.45 260.75 734.25 C 253.50 728.04 249.60 720.43 244.75 714.25 C 239.90 708.08 236.89 703.17 234.57 696.77 C 232.25 690.37 228.39 683.68 227.39 675.75 C 226.40 667.82 223.25 656.00 223.22 647.22 C 223.19 638.44 222.63 624.84 224.20 617.25 C 225.77 609.66 226.28 601.01 228.29 593.30 C 230.30 585.60 235.12 578.03 238.22 570.22 C 241.33 562.42 247.13 555.40 252.92 547.92 C 258.71 540.44 268.62 533.55 275.08 527.13 C 281.54 520.71 288.12 518.40 294.90 513.91 C 301.68 509.41 307.60 507.05 315.00 504.00
C 307.80 496.27 291.04 487.29 282.71 476.30 C 274.38 465.32 266.64 456.33 262.19 444.25 C 257.75 432.16 254.71 420.79 253.40 406.75 C 252.08 392.71 252.12 378.59 254.40 364.75 C 256.67 350.91 259.50 341.27 264.22 329.22 C 268.95 317.18 274.43 307.89 282.92 296.92 C 291.40 285.95 301.82 277.48 312.92 271.92 C 324.02 266.37 333.60 261.97 345.92 259.07 C 358.24 256.16 376.48 258.64 391.00 257.00 C 405.52 255.36 420.60 255.46 437.78 255.78 C 454.96 256.09 475.93 254.58 491.00 256.00 C 506.07 257.42 524.33 250.50 535.08 256.92 C 545.83 263.34 542.09 279.42 542.35 292.30 C 542.61 305.19 543.18 321.79 542.99 335.99 C 542.80 350.19 542.50 371.29 542.93 385.92 C 543.36 400.56 540.84 409.47 542.07 423.93 C 543.30 438.38 540.76 452.35 542.00 467.00
C 577.65 437.87 612.99 398.36 644.90 364.90 C 676.82 331.45 706.46 292.81 739.00 258.00 Z"/>
</g>
<g fill="#000000" fill-opacity="0.01" stroke="None">
<path d="
M 812.00 681.00 
C 820.93 673.73 822.34 665.74 827.23 656.23 C 832.12 646.71 834.75 633.57 838.29 623.30 C 841.83 613.03 844.16 601.87 847.02 590.03 C 849.88 578.18 848.25 570.39 850.23 558.23 C 852.21 546.07 854.29 531.28 853.07 519.07 C 851.85 506.86 852.48 491.73 850.80 481.25 C 849.12 470.77 848.36 461.08 845.80 451.25 C 843.24 441.42 841.68 430.18 838.60 421.75 C 835.53 413.32 833.53 402.06 830.26 392.75 C 827.00 383.45 823.21 371.87 818.71 363.30 C 814.21 354.74 808.90 347.10 804.13 337.92 C 799.36 328.74 792.85 321.25 785.78 312.22 C 778.71 303.20 770.20 290.12 760.00 285.00
C 731.61 320.13 704.36 354.25 671.25 390.25 C 638.13 426.25 599.44 459.45 567.00 497.00
C 609.31 526.58 649.96 556.58 690.26 586.74 C 730.56 616.91 774.53 647.86 812.00 681.00
M 713.00 396.00 
C 722.65 407.82 717.87 425.48 718.01 441.01 C 718.14 456.54 720.56 473.77 722.57 487.77 C 724.58 501.76 740.24 513.53 753.77 507.42 C 767.30 501.31 773.99 486.34 774.78 471.78 C 775.56 457.21 781.87 436.94 778.40 419.26 C 774.94 401.57 791.69 389.10 804.00 402.00
C 806.42 422.74 804.37 451.44 801.67 471.67 C 798.98 491.91 790.50 511.12 773.90 523.90 C 757.30 536.68 732.35 538.42 715.70 525.30 C 699.06 512.18 691.46 491.40 691.40 470.25 C 691.34 449.11 686.82 418.97 692.00 398.00
C 699.46 394.98 706.24 395.16 713.00 396.00 Z"/>
</g>
<g fill="#000000" fill-opacity="0.00" stroke="None">
<path d="
M 505.00 293.00 
C 469.39 294.99 429.12 292.44 398.08 293.07 C 367.04 293.69 334.04 296.89 314.71 319.70 C 295.39 342.50 293.46 363.07 291.40 392.25 C 289.33 421.43 305.08 449.27 327.25 464.74 C 349.42 480.21 371.61 483.74 403.98 483.98 C 436.34 484.21 473.48 482.29 504.00 482.00
C 505.22 418.72 503.74 357.77 505.00 293.00 Z"/>
</g>
<g fill="#000000" fill-opacity="0.98" stroke="None">
<path d="
M 713.00 396.00 
C 706.24 395.16 699.46 394.98 692.00 398.00
C 686.82 418.97 691.34 449.11 691.40 470.25 C 691.46 491.40 699.06 512.18 715.70 525.30 C 732.35 538.42 757.30 536.68 773.90 523.90 C 790.50 511.12 798.98 491.91 801.67 471.67 C 804.37 451.44 806.42 422.74 804.00 402.00
C 791.69 389.10 774.94 401.57 778.40 419.26 C 781.87 436.94 775.56 457.21 774.78 471.78 C 773.99 486.34 767.30 501.31 753.77 507.42 C 740.24 513.53 724.58 501.76 722.57 487.77 C 720.56 473.77 718.14 456.54 718.01 441.01 C 717.87 425.48 722.65 407.82 713.00 396.00 Z"/>
</g>
<g fill="#000000" fill-opacity="0.00" stroke="None">
<path d="
M 494.00 518.00 
C 482.84 517.97 470.01 521.08 460.00 521.00 C 449.99 520.91 439.68 519.18 430.75 520.40 C 421.82 521.61 413.51 521.44 403.00 520.00 C 392.49 518.56 385.02 523.43 376.68 523.66 C 368.34 523.90 360.40 525.28 353.75 527.41 C 347.10 529.54 340.06 532.23 333.92 534.87 C 327.78 537.51 322.48 539.99 316.92 543.91 C 311.36 547.83 303.81 553.90 298.13 559.08 C 292.45 564.26 285.78 570.85 281.59 577.25 C 277.39 583.65 272.74 589.76 270.19 596.75 C 267.64 603.73 266.90 609.05 265.60 617.25 C 264.31 625.45 262.63 635.26 263.07 643.92 C 263.51 652.57 264.88 661.79 267.24 669.75 C 269.61 677.72 271.45 683.28 275.29 689.70 C 279.12 696.12 281.76 699.98 287.75 707.25 C 293.74 714.52 302.08 718.75 307.90 722.09 C 313.72 725.44 318.29 727.85 324.75 730.81 C 331.22 733.76 337.93 733.94 345.70 736.29 C 353.46 738.63 360.77 741.73 368.44 742.22 C 376.11 742.71 387.66 744.31 396.26 744.40 C 404.85 744.49 414.99 746.68 423.26 745.40 C 431.52 744.12 446.06 748.25 452.90 744.91 C 459.74 741.56 473.74 744.65 480.92 742.92 C 488.11 741.20 504.20 745.20 503.93 736.07 C 503.65 726.95 500.89 714.80 502.98 705.02 C 505.06 695.24 503.07 686.26 503.35 676.70 C 503.63 667.13 502.43 656.43 503.33 646.67 C 504.24 636.91 502.10 623.89 502.93 613.07 C 503.76 602.26 502.50 594.46 503.01 583.01 C 503.51 571.56 503.87 561.98 503.02 551.02 C 502.18 540.07 505.08 531.19 504.00 520.00
C 501.14 518.37 487.50 522.01 494.00 518.00 Z"/>
</g>
</svg>